<?xml version="1.0" standalone="no"?><!DOCTYPE svg PUBLIC "-//W3C//DTD SVG 1.1//EN" "http://www.w3.org/Graphics/SVG/1.1/DTD/svg11.dtd"><svg t="1505203366410" class="icon" style="" viewBox="0 0 1025 1024" version="1.1" xmlns="http://www.w3.org/2000/svg" p-id="2364" xmlns:xlink="http://www.w3.org/1999/xlink" width="200.1953125" height="200"><defs><style type="text/css"></style></defs><path d="M512.021479 1024c-282.316505 0-512.021483-229.662013-512.021483-511.978517S229.704974 0 512.021479 0s512.021483 229.704978 512.021483 512.021483S794.337983 1024 512.021479 1024zM512.021479 22.261359c-270.054906 0-489.760124 219.705218-489.760124 489.760124S241.966573 1001.737618 512.021479 1001.737618 1001.781603 782.076389 1001.781603 512.021483 782.076385 22.261359 512.021479 22.261359z" p-id="2365" fill="#d4237a"></path><path d="M649.445294 314.920326 512.021479 452.344141 374.596641 314.920326 314.941805 374.575162 452.36562 512 314.941805 649.423815 374.596641 709.078651 512.021479 571.654836 649.445294 709.078651 709.100129 649.423815 571.676315 512 709.100129 374.575162Z" p-id="2366" fill="#d4237a"></path></svg>