<?xml version="1.0" standalone="no"?><!DOCTYPE svg PUBLIC "-//W3C//DTD SVG 1.1//EN" "http://www.w3.org/Graphics/SVG/1.1/DTD/svg11.dtd"><svg t="1505360129439" class="icon" style="" viewBox="0 0 1024 1024" version="1.1" xmlns="http://www.w3.org/2000/svg" p-id="2367" xmlns:xlink="http://www.w3.org/1999/xlink" width="200" height="200"><defs><style type="text/css"></style></defs><path d="M512 0C229.2 0 0 229.2 0 512s229.2 512 512 512 512-229.2 512-512S794.8 0 512 0z m192 512c0 17.7-14.3 32-32 32H544v128c0 17.7-14.3 32-32 32s-32-14.3-32-32V544H352c-17.7 0-32-14.3-32-32s14.3-32 32-32h128V352c0-17.7 14.3-32 32-32s32 14.3 32 32v128h128c17.7 0 32 14.3 32 32z" p-id="2368" fill="#00bcd4"></path></svg>